<?xml version="1.0" standalone="no"?>
<!DOCTYPE svg PUBLIC "-//W3C//DTD SVG 20010904//EN"
 "http://www.w3.org/TR/2001/REC-SVG-20010904/DTD/svg10.dtd">
<svg version="1.0" xmlns="http://www.w3.org/2000/svg"
 width="600.000000pt" height="600.000000pt" viewBox="0 0 600.000000 600.000000"
 preserveAspectRatio="xMidYMid meet">
<g transform="translate(0.000000,600.000000) scale(0.100000,-0.100000)"
fill="#3ed520" stroke="none">
<path d="M1492 3944 c-38 -20 -49 -52 -32 -95 9 -20 10 -33 3 -37 -27 -19
-210 -171 -222 -185 -12 -16 -2 -17 136 -17 l149 0 48 55 c43 50 51 55 87 55
31 0 47 7 70 29 52 52 41 76 -68 147 -98 63 -125 71 -171 48z"/>
<path d="M2678 3669 c-182 -52 -213 -307 -49 -398 206 -114 471 83 372 277
-56 109 -188 159 -323 121z m148 -58 c98 -59 78 -293 -26 -316 -96 -21 -160
63 -147 191 12 119 90 175 173 125z"/>
<path d="M3227 3666 c-198 -74 -197 -355 2 -414 251 -76 453 174 287 356 -55
61 -202 91 -289 58z m147 -51 c93 -44 90 -276 -3 -315 -67 -27 -142 18 -157
96 -29 157 53 270 160 219z"/>
<path d="M1970 3651 c0 -13 8 -21 23 -23 35 -5 40 -323 5 -334 -22 -7 -38 -21
-38 -36 0 -5 43 -8 96 -8 86 0 95 2 92 18 -2 9 -14 18 -26 20 -32 5 -33 12
-30 140 l3 112 125 -150 c124 -148 125 -149 167 -149 l43 -1 -6 133 c-7 174 3
251 34 255 14 2 22 10 22 23 0 17 -8 19 -96 19 -85 0 -95 -2 -92 -17 2 -10 12
-19 23 -21 36 -7 45 -31 45 -129 0 -51 -3 -93 -7 -92 -5 0 -55 58 -113 129
l-105 129 -82 0 c-76 1 -83 -1 -83 -18z"/>
<path d="M3620 3654 c0 -8 14 -20 30 -25 l30 -11 0 -159 0 -159 -25 -6 c-16
-4 -25 -13 -25 -25 0 -18 9 -19 115 -19 122 0 149 13 88 42 -26 12 -28 19 -31
76 -5 97 25 89 102 -28 l59 -90 78 0 c69 0 79 2 79 18 0 10 -12 22 -29 28 -45
17 -138 146 -115 159 106 59 98 173 -12 204 -65 18 -344 14 -344 -5z m273 -45
c71 -38 41 -126 -46 -136 l-47 -6 0 77 0 76 36 0 c19 0 45 -5 57 -11z"/>
<path d="M404 3579 c-17 -19 -18 -40 -1 -63 20 -27 1265 -26 1284 1 17 22 17
62 1 68 -7 3 -296 6 -641 7 -562 3 -630 1 -643 -13z"/>
<path d="M444 3415 c3 -33 8 -103 12 -155 16 -258 82 -388 238 -470 43 -23 59
-51 37 -64 -5 -3 -11 -15 -14 -26 -5 -20 -1 -20 328 -20 l334 0 -14 39 -14 40
56 31 c109 62 178 151 208 268 14 55 35 278 35 372 l0 45 -606 0 -605 0 5 -60z
m654 -132 c40 -30 42 -76 4 -111 l-30 -28 20 -24 c11 -14 29 -36 40 -50 l20
-25 29 33 c30 33 37 52 19 52 -5 0 -10 5 -10 10 0 6 23 10 50 10 l51 0 -60
-62 -60 -61 47 -60 c26 -32 57 -67 69 -77 35 -27 29 -30 -57 -30 -47 0 -80 4
-80 10 0 6 7 10 15 10 23 0 17 21 -15 59 -32 38 -41 36 -82 -21 -20 -28 -20
-30 -2 -43 17 -13 12 -14 -43 -15 -36 0 -63 4 -63 10 0 6 6 10 13 10 7 0 39
26 71 59 l58 58 -54 71 c-62 83 -88 92 -88 33 0 -49 8 -71 25 -71 8 0 17 -4
20 -10 4 -6 -25 -10 -79 -10 -51 0 -86 4 -86 10 0 6 7 10 15 10 25 0 35 36 35
132 0 98 -4 110 -33 121 -39 15 -4 22 102 21 96 0 115 -3 139 -21z"/>
<path d="M960 3220 c0 -66 19 -79 68 -44 50 34 22 104 -42 104 -25 0 -26 -2
-26 -60z"/>
<path d="M5040 3081 c-99 -33 -150 -99 -150 -197 0 -139 78 -213 223 -214 105
0 177 37 177 92 0 40 -28 48 -54 15 -38 -46 -129 -63 -174 -31 -74 51 -74 227
0 273 48 30 130 13 148 -29 10 -24 19 -30 41 -30 28 0 29 1 29 54 0 42 -4 55
-17 61 -28 11 -195 16 -223 6z"/>
<path d="M1950 3060 c0 -13 7 -20 18 -20 37 0 42 -20 42 -159 0 -145 -2 -154
-37 -165 -13 -4 -23 -14 -23 -22 0 -11 22 -14 115 -14 93 0 115 3 115 14 0 8
-13 17 -30 21 -29 6 -30 9 -30 61 l0 54 50 0 c101 0 170 55 170 136 0 88 -63
114 -270 114 -113 0 -120 -1 -120 -20z m254 -43 c55 -40 16 -147 -54 -147
l-30 0 0 80 0 80 33 0 c18 0 41 -6 51 -13z"/>
<path d="M2370 3060 c0 -13 7 -20 20 -20 36 0 38 -18 32 -236 -2 -78 -3 -82
-27 -88 -14 -4 -25 -13 -25 -21 0 -12 20 -15 110 -15 91 0 110 3 110 15 0 8
-6 15 -14 15 -31 0 -46 30 -46 91 l0 59 85 0 85 0 0 -69 c0 -65 -1 -69 -25
-75 -14 -4 -25 -13 -25 -21 0 -12 20 -15 110 -15 116 0 144 13 80 37 l-31 11
3 149 3 148 28 13 c60 29 34 42 -83 42 -101 0 -110 -2 -110 -19 0 -12 9 -21
25 -25 23 -6 25 -11 25 -66 l0 -60 -85 0 -86 0 3 56 c2 45 7 59 23 68 61 34
39 46 -81 46 -97 0 -104 -1 -104 -20z"/>
<path d="M3061 3038 c-10 -24 -42 -101 -71 -172 -35 -83 -62 -134 -77 -143
-45 -30 -29 -43 52 -43 76 0 105 19 55 35 -23 7 -24 11 -9 54 11 31 12 31 79
31 l68 0 15 -37 c15 -37 15 -38 -9 -47 -57 -23 -27 -36 81 -36 108 0 136 13
82 37 -18 8 -41 53 -98 187 l-74 175 -38 1 c-35 0 -39 -3 -56 -42z m78 -180
c1 -5 -19 -8 -44 -8 -52 0 -52 2 -24 67 l22 48 23 -50 c12 -27 23 -53 23 -57z"/>
<path d="M3370 3062 c0 -14 8 -22 23 -24 21 -3 22 -8 27 -123 7 -170 4 -192
-26 -199 -13 -4 -24 -13 -24 -21 0 -12 19 -15 105 -15 107 0 135 12 83 35 -20
9 -23 19 -26 73 -4 92 19 86 89 -23 l54 -85 72 0 c79 0 99 17 46 39 -16 6 -49
41 -75 78 l-48 65 33 22 c72 49 72 142 -1 174 -64 27 -332 31 -332 4z m251
-42 c14 -8 19 -21 19 -55 0 -51 -24 -75 -77 -75 l-33 0 0 70 0 70 36 0 c19 0
44 -5 55 -10z"/>
<path d="M3840 3065 c0 -9 11 -20 25 -25 l25 -10 0 -150 0 -150 -25 -12 c-50
-23 -30 -38 50 -38 76 0 105 19 55 35 -19 6 -20 15 -19 133 0 88 3 121 10 107
5 -11 33 -76 62 -145 73 -172 79 -171 157 8 72 164 70 163 71 66 0 -43 2 -93
5 -111 4 -33 -15 -63 -42 -63 -8 0 -14 -7 -14 -15 0 -12 18 -15 105 -15 110 0
136 13 80 38 l-26 12 3 152 c3 150 3 153 26 156 14 2 22 10 22 23 0 18 -6 20
-91 17 l-90 -3 -40 -95 c-23 -52 -45 -106 -51 -120 l-10 -25 -13 25 c-8 14
-33 69 -56 123 l-42 97 -89 0 c-72 0 -88 -3 -88 -15z"/>
<path d="M4560 2953 c-80 -192 -100 -232 -121 -238 -10 -4 -19 -13 -19 -21 0
-11 17 -14 80 -14 64 0 80 3 80 15 0 8 -6 15 -12 15 -31 1 -38 15 -26 53 l12
38 69 -3 70 -3 13 -37 c12 -37 12 -38 -12 -44 -13 -3 -24 -12 -24 -20 0 -11
22 -14 105 -14 109 0 136 13 81 38 -18 8 -40 51 -97 186 l-74 175 -36 1 -36 0
-53 -127z m84 -26 c32 -78 32 -77 -19 -77 -34 0 -46 4 -42 13 45 113 42 109
61 64z"/>
<path d="M5300 3061 c0 -11 9 -21 23 -25 42 -11 157 -191 157 -245 0 -53 -7
-66 -37 -75 -13 -4 -23 -14 -23 -22 0 -11 21 -14 110 -14 90 0 110 3 110 15 0
8 -11 17 -25 21 -25 6 -33 43 -27 117 3 32 124 197 149 203 14 4 23 14 23 25
0 17 -8 19 -80 19 -73 0 -80 -2 -80 -20 0 -11 7 -20 15 -20 22 0 19 -15 -17
-81 -40 -72 -38 -72 -82 2 -40 67 -43 79 -21 79 8 0 15 9 15 20 0 19 -7 20
-105 20 -96 0 -105 -2 -105 -19z"/>
<path d="M614 2655 c-22 -17 -27 -60 -9 -79 25 -25 855 -25 880 0 16 17 14 58
-4 77 -12 12 -851 14 -867 2z"/>
<path d="M3456 2491 c-3 -5 0 -14 8 -20 8 -6 24 -38 36 -71 26 -70 54 -81 71
-30 6 17 15 30 19 30 4 0 13 -13 19 -30 16 -48 35 -36 65 40 15 39 32 70 37
70 6 0 7 5 4 10 -8 13 -52 13 -59 1 -4 -5 -2 -11 4 -13 6 -2 4 -20 -4 -47
l-13 -44 -17 44 c-12 29 -14 45 -7 47 20 7 0 22 -28 22 -36 0 -43 -8 -26 -32
13 -20 3 -68 -15 -68 -11 0 -31 67 -24 84 7 18 -59 25 -70 7z"/>
<path d="M3735 2490 c-3 -5 -1 -10 4 -10 15 0 14 -113 -1 -128 -9 -9 -2 -12
35 -12 26 0 47 5 47 10 0 6 -4 10 -10 10 -6 0 -10 27 -10 60 0 36 4 60 11 60
5 0 7 5 4 10 -3 6 -21 10 -40 10 -19 0 -37 -4 -40 -10z"/>
<path d="M3840 2473 c0 -25 1 -25 18 -10 28 26 32 21 32 -39 0 -42 -4 -60 -17
-70 -16 -12 -11 -13 37 -13 48 0 53 1 38 13 -13 10 -18 27 -18 64 0 56 10 70
33 47 21 -21 27 -19 27 10 0 24 -2 25 -75 25 -75 0 -75 0 -75 -27z"/>
<path d="M4006 2491 c-3 -5 1 -11 9 -15 20 -7 20 -85 -1 -114 -15 -22 -15 -22
32 -22 37 0 45 3 36 12 -25 25 -15 58 18 58 33 0 43 -33 18 -58 -9 -9 -1 -12
37 -12 38 0 46 3 37 12 -15 15 -16 128 -1 128 5 0 7 5 4 10 -3 6 -21 10 -40
10 -19 0 -37 -4 -40 -10 -3 -5 -1 -10 4 -10 6 0 11 -11 11 -25 0 -21 -5 -25
-30 -25 -25 0 -30 4 -30 25 0 14 5 25 11 25 5 0 7 5 4 10 -8 12 -72 13 -79 1z"/>
<path d="M4340 2492 c0 -6 5 -14 10 -17 18 -11 12 -106 -7 -121 -24 -18 97
-20 130 -3 43 23 53 92 17 124 -22 20 -150 35 -150 17z m123 -56 c11 -33 -14
-76 -43 -76 -17 0 -20 7 -20 53 0 30 3 56 6 60 12 12 48 -11 57 -37z"/>
<path d="M4535 2490 c-3 -5 -1 -10 4 -10 15 0 14 -113 -1 -128 -9 -9 5 -12 65
-12 71 0 77 2 74 20 -4 28 -15 36 -23 16 -11 -28 -64 -21 -64 9 0 20 5 25 25
25 14 0 25 5 25 10 0 6 -11 10 -25 10 -20 0 -25 5 -25 25 0 29 29 35 50 10 18
-22 32 -18 28 8 -3 20 -9 22 -65 25 -35 2 -64 -2 -68 -8z"/>
<path d="M4695 2490 c-3 -5 -1 -10 4 -10 15 0 14 -113 -1 -128 -9 -9 0 -12 43
-12 47 1 52 2 37 14 -26 19 -22 35 10 42 58 14 75 70 27 92 -32 15 -112 16
-120 2z m93 -22 c18 -18 15 -36 -8 -48 -18 -10 -20 -8 -20 25 0 37 8 43 28 23z"/>
<path d="M4860 2475 c0 -25 1 -25 25 -9 l25 16 0 -61 c0 -34 -4 -61 -10 -61
-5 0 -10 -4 -10 -10 0 -5 21 -10 47 -10 37 0 44 3 35 12 -18 18 -16 118 3 118
8 0 15 -4 15 -10 0 -5 5 -10 10 -10 6 0 10 11 10 25 0 24 -2 25 -75 25 -74 0
-75 0 -75 -25z"/>
<path d="M5145 2490 c-3 -5 -1 -10 4 -10 7 0 11 -24 11 -60 0 -33 -4 -60 -10
-60 -5 0 -10 -4 -10 -10 0 -5 21 -10 48 -10 41 1 45 2 30 14 -24 17 -26 114
-3 122 8 4 12 10 9 15 -7 12 -71 11 -79 -1z"/>
<path d="M5245 2490 c-3 -5 -1 -10 4 -10 15 0 14 -113 -1 -128 -9 -9 -3 -12
27 -12 30 0 36 3 27 12 -7 7 -12 30 -12 51 l0 40 42 -52 c56 -69 68 -67 68 13
0 36 5 68 10 71 20 12 9 25 -20 25 -29 0 -40 -13 -20 -25 6 -3 10 -21 10 -38
l-1 -32 -42 48 c-41 45 -77 61 -92 37z"/>
<path d="M5466 2479 c-34 -27 -37 -96 -5 -125 26 -23 92 -25 115 -2 23 23 8
45 -16 23 -43 -39 -97 15 -71 71 12 28 51 33 71 9 15 -18 30 -11 30 14 0 35
-83 42 -124 10z"/>
<path d="M4210 2361 c0 -19 23 -35 34 -24 14 15 5 43 -14 43 -13 0 -20 -7 -20
-19z"/>
<path d="M5014 2365 c-4 -10 -1 -21 7 -26 20 -12 34 -5 34 17 0 24 -33 31 -41
9z"/>
<path d="M5603 2364 c-3 -8 -1 -20 4 -25 14 -14 43 0 43 22 0 24 -38 26 -47 3z"/>
<path d="M2640 1045 c0 -3 2 -5 5 -5 3 0 5 2 5 5 0 3 -2 5 -5 5 -3 0 -5 -2 -5
-5z"/>
</g>
</svg>
