<svg width="1200" height="800" viewBox="0 0 1200 800" xmlns="http://www.w3.org/2000/svg">
  <defs>
    <!-- Pattern for pills and medical elements -->
    <pattern id="pharmacyPattern" patternUnits="userSpaceOnUse" width="200" height="200">
      <!-- Pills -->
      <ellipse cx="50" cy="50" rx="15" ry="8" fill="#4CAF50" opacity="0.03"/>
      <ellipse cx="150" cy="80" rx="12" ry="6" fill="#66BB6A" opacity="0.03"/>
      <ellipse cx="80" cy="120" rx="10" ry="5" fill="#4CAF50" opacity="0.03"/>
      <ellipse cx="120" cy="160" rx="14" ry="7" fill="#66BB6A" opacity="0.03"/>
      
      <!-- Capsules -->
      <rect x="30" y="170" width="20" height="8" rx="4" fill="#4CAF50" opacity="0.02"/>
      <rect x="160" y="40" width="18" height="6" rx="3" fill="#66BB6A" opacity="0.02"/>
      <rect x="90" y="30" width="16" height="7" rx="3" fill="#4CAF50" opacity="0.02"/>
      
      <!-- Medical crosses -->
      <g opacity="0.02">
        <rect x="175" y="170" width="3" height="15" fill="#4CAF50"/>
        <rect x="170" y="175" width="13" height="3" fill="#4CAF50"/>
      </g>
      
      <g opacity="0.02">
        <rect x="25" y="25" width="2" height="10" fill="#66BB6A"/>
        <rect x="22" y="28" width="8" height="2" fill="#66BB6A"/>
      </g>
      
      <!-- Mortar and pestle outlines -->
      <g opacity="0.015">
        <ellipse cx="140" cy="140" rx="12" ry="8" fill="none" stroke="#4CAF50" stroke-width="1"/>
        <path d="M135 140 L145 135" stroke="#4CAF50" stroke-width="1"/>
      </g>
    </pattern>
  </defs>
  
  <!-- Background -->
  <rect width="1200" height="800" fill="url(#pharmacyPattern)"/>
</svg>